{
	"asset":{
		"generator":"Khronos glTF Blender I/O v4.0.44",
		"version":"2.0"
	},
	"extensionsUsed":[
		"KHR_materials_specular",
		"KHR_materials_ior"
	],
	"scene":0,
	"scenes":[
		{
			"name":"Scene",
			"nodes":[
				0
			]
		}
	],
	"nodes":[
		{
			"mesh":0,
			"name":"33",
			"rotation":[
				0.7071068286895752,
				0,
				0,
				0.7071068286895752
			],
			"translation":[
				-6.233646869659424,
				0.5279678702354431,
				5.647976398468018
			]
		}
	],
	"materials":[
		{
			"doubleSided":true,
			"extensions":{
				"KHR_materials_specular":{
					"specularFactor":0.6600000262260437
				},
				"KHR_materials_ior":{
					"ior":1.4500000476837158
				}
			},
			"name":"_0136_Charcoal_2.001",
			"pbrMetallicRoughness":{
				"baseColorFactor":[
					0.137254998087883,
					0.137254998087883,
					0.137254998087883,
					1
				],
				"metallicFactor":0
			}
		},
		{
			"doubleSided":true,
			"extensions":{
				"KHR_materials_specular":{
					"specularFactor":0.6600000262260437
				},
				"KHR_materials_ior":{
					"ior":1.4500000476837158
				}
			},
			"name":"M_0129_WhiteSmoke.001",
			"pbrMetallicRoughness":{
				"baseColorFactor":[
					0.9607840180397034,
					0.9607840180397034,
					0.9607840180397034,
					1
				],
				"metallicFactor":0
			}
		},
		{
			"doubleSided":true,
			"extensions":{
				"KHR_materials_specular":{
					"specularFactor":0.6600000262260437
				},
				"KHR_materials_ior":{
					"ior":1.4500000476837158
				}
			},
			"name":"M_0059_DarkOliveGreen.001",
			"pbrMetallicRoughness":{
				"baseColorFactor":[
					0.7450979948043823,
					0.7686269879341125,
					0.5882350206375122,
					1
				],
				"metallicFactor":0
			}
		},
		{
			"doubleSided":true,
			"extensions":{
				"KHR_materials_specular":{
					"specularFactor":0.6600000262260437
				},
				"KHR_materials_ior":{
					"ior":1.4500000476837158
				}
			},
			"name":"Color_I04.001",
			"pbrMetallicRoughness":{
				"baseColorFactor":[
					0.19607800245285034,
					0.19607800245285034,
					1,
					1
				],
				"metallicFactor":0
			}
		},
		{
			"doubleSided":true,
			"extensions":{
				"KHR_materials_specular":{
					"specularFactor":0.6600000262260437
				},
				"KHR_materials_ior":{
					"ior":1.4500000476837158
				}
			},
			"name":"Color_M03.001",
			"pbrMetallicRoughness":{
				"baseColorFactor":[
					0.6666669845581055,
					0.6666669845581055,
					0.6666669845581055,
					1
				],
				"metallicFactor":0
			}
		},
		{
			"doubleSided":true,
			"extensions":{
				"KHR_materials_specular":{
					"specularFactor":0.6600000262260437
				},
				"KHR_materials_ior":{
					"ior":1.4500000476837158
				}
			},
			"name":"M_0045_Goldenrod.001",
			"pbrMetallicRoughness":{
				"baseColorFactor":[
					0.8549020290374756,
					0.6470590233802795,
					0.1254899948835373,
					1
				],
				"metallicFactor":0
			}
		},
		{
			"alphaMode":"BLEND",
			"doubleSided":true,
			"extensions":{
				"KHR_materials_specular":{
					"specularFactor":0.6600000262260437
				},
				"KHR_materials_ior":{
					"ior":1.4500000476837158
				}
			},
			"name":"M_0079_Teal.001",
			"pbrMetallicRoughness":{
				"baseColorFactor":[
					0.5529410243034363,
					0.7019609808921814,
					0.7019609808921814,
					0.7200000286102295
				],
				"metallicFactor":0
			}
		},
		{
			"doubleSided":true,
			"extensions":{
				"KHR_materials_specular":{
					"specularFactor":0.6600000262260437
				},
				"KHR_materials_ior":{
					"ior":1.4500000476837158
				}
			},
			"name":"M_0068_LightGreen.001",
			"pbrMetallicRoughness":{
				"baseColorFactor":[
					0.564706027507782,
					0.9333329796791077,
					0.564706027507782,
					1
				],
				"metallicFactor":0
			}
		},
		{
			"doubleSided":true,
			"extensions":{
				"KHR_materials_specular":{
					"specularFactor":0.6600000262260437
				},
				"KHR_materials_ior":{
					"ior":1.4500000476837158
				}
			},
			"name":"FrontColor.001",
			"pbrMetallicRoughness":{
				"metallicFactor":0
			}
		},
		{
			"doubleSided":true,
			"extensions":{
				"KHR_materials_specular":{
					"specularFactor":0.6600000262260437
				},
				"KHR_materials_ior":{
					"ior":1.4500000476837158
				}
			},
			"name":"M_0002_MediumVioletRed.001",
			"pbrMetallicRoughness":{
				"baseColorFactor":[
					0.9098039865493774,
					0.9098039865493774,
					0.9098039865493774,
					1
				],
				"metallicFactor":0
			}
		},
		{
			"doubleSided":true,
			"extensions":{
				"KHR_materials_specular":{
					"specularFactor":0.6600000262260437
				},
				"KHR_materials_ior":{
					"ior":1.4500000476837158
				}
			},
			"name":"M_0021_DarkRed.001",
			"pbrMetallicRoughness":{
				"baseColorFactor":[
					0.5450980067253113,
					0,
					0,
					1
				],
				"metallicFactor":0
			}
		},
		{
			"doubleSided":true,
			"extensions":{
				"KHR_materials_specular":{
					"specularFactor":0.6600000262260437
				},
				"KHR_materials_ior":{
					"ior":1.4500000476837158
				}
			},
			"name":"M_0010_Snow.001",
			"pbrMetallicRoughness":{
				"baseColorFactor":[
					0.6078429818153381,
					0.6078429818153381,
					0.6078429818153381,
					1
				],
				"metallicFactor":0
			}
		}
	],
	"meshes":[
		{
			"name":"33",
			"primitives":[
				{
					"attributes":{
						"POSITION":0,
						"NORMAL":1,
						"TEXCOORD_0":2
					},
					"indices":3,
					"material":0
				},
				{
					"attributes":{
						"POSITION":4,
						"NORMAL":5,
						"TEXCOORD_0":6
					},
					"indices":7,
					"material":1
				},
				{
					"attributes":{
						"POSITION":8,
						"NORMAL":9,
						"TEXCOORD_0":10
					},
					"indices":11,
					"material":2
				},
				{
					"attributes":{
						"POSITION":12,
						"NORMAL":13,
						"TEXCOORD_0":14
					},
					"indices":15,
					"material":3
				},
				{
					"attributes":{
						"POSITION":16,
						"NORMAL":17,
						"TEXCOORD_0":18
					},
					"indices":19,
					"material":4
				},
				{
					"attributes":{
						"POSITION":20,
						"NORMAL":21,
						"TEXCOORD_0":22
					},
					"indices":23,
					"material":5
				},
				{
					"attributes":{
						"POSITION":24,
						"NORMAL":25,
						"TEXCOORD_0":26
					},
					"indices":27,
					"material":6
				},
				{
					"attributes":{
						"POSITION":28,
						"NORMAL":29,
						"TEXCOORD_0":30
					},
					"indices":31,
					"material":7
				},
				{
					"attributes":{
						"POSITION":32,
						"NORMAL":33,
						"TEXCOORD_0":34
					},
					"indices":35,
					"material":8
				},
				{
					"attributes":{
						"POSITION":36,
						"NORMAL":37,
						"TEXCOORD_0":38
					},
					"indices":39,
					"material":9
				},
				{
					"attributes":{
						"POSITION":40,
						"NORMAL":41,
						"TEXCOORD_0":42
					},
					"indices":43,
					"material":10
				},
				{
					"attributes":{
						"POSITION":44,
						"NORMAL":45,
						"TEXCOORD_0":46
					},
					"indices":47,
					"material":11
				}
			]
		}
	],
	"accessors":[
		{
			"bufferView":0,
			"componentType":5126,
			"count":2632,
			"max":[
				8.570329666137695,
				-4.509890079498291,
				0.5347999930381775
			],
			"min":[
				4.894959926605225,
				-6.537569999694824,
				0.5248000025749207
			],
			"type":"VEC3"
		},
		{
			"bufferView":1,
			"componentType":5126,
			"count":2632,
			"type":"VEC3"
		},
		{
			"bufferView":2,
			"componentType":5126,
			"count":2632,
			"type":"VEC2"
		},
		{
			"bufferView":3,
			"componentType":5123,
			"count":5310,
			"type":"SCALAR"
		},
		{
			"bufferView":4,
			"componentType":5126,
			"count":360,
			"max":[
				8.569310188293457,
				-4.510900020599365,
				0.5273000001907349
			],
			"min":[
				4.895969867706299,
				-6.53656005859375,
				0.5248000025749207
			],
			"type":"VEC3"
		},
		{
			"bufferView":5,
			"componentType":5126,
			"count":360,
			"type":"VEC3"
		},
		{
			"bufferView":6,
			"componentType":5126,
			"count":360,
			"type":"VEC2"
		},
		{
			"bufferView":7,
			"componentType":5123,
			"count":990,
			"type":"SCALAR"
		},
		{
			"bufferView":8,
			"componentType":5126,
			"count":39987,
			"max":[
				8.717619895935059,
				-3.885159969329834,
				0.5322999954223633
			],
			"min":[
				4.264939785003662,
				-6.827030181884766,
				0.46230000257492065
			],
			"type":"VEC3"
		},
		{
			"bufferView":9,
			"componentType":5126,
			"count":39987,
			"type":"VEC3"
		},
		{
			"bufferView":10,
			"componentType":5126,
			"count":39987,
			"type":"VEC2"
		},
		{
			"bufferView":11,
			"componentType":5123,
			"count":80661,
			"type":"SCALAR"
		},
		{
			"bufferView":12,
			"componentType":5126,
			"count":2043,
			"max":[
				8.552559852600098,
				-4.421410083770752,
				0.5322999954223633
			],
			"min":[
				4.902249813079834,
				-5.686600208282471,
				0.5297999978065491
			],
			"type":"VEC3"
		},
		{
			"bufferView":13,
			"componentType":5126,
			"count":2043,
			"type":"VEC3"
		},
		{
			"bufferView":14,
			"componentType":5126,
			"count":2043,
			"type":"VEC2"
		},
		{
			"bufferView":15,
			"componentType":5123,
			"count":4092,
			"type":"SCALAR"
		},
		{
			"bufferView":16,
			"componentType":5126,
			"count":1837,
			"max":[
				7.87529993057251,
				-5.586100101470947,
				0.5322999954223633
			],
			"min":[
				2.704969882965088,
				-6.098999977111816,
				0.5303000211715698
			],
			"type":"VEC3"
		},
		{
			"bufferView":17,
			"componentType":5126,
			"count":1837,
			"type":"VEC3"
		},
		{
			"bufferView":18,
			"componentType":5126,
			"count":1837,
			"type":"VEC2"
		},
		{
			"bufferView":19,
			"componentType":5123,
			"count":3408,
			"type":"SCALAR"
		},
		{
			"bufferView":20,
			"componentType":5126,
			"count":2676,
			"max":[
				8.492650032043457,
				-4.620049953460693,
				0.5400000214576721
			],
			"min":[
				6.699490070343018,
				-6.520140171051025,
				0.5297999978065491
			],
			"type":"VEC3"
		},
		{
			"bufferView":21,
			"componentType":5126,
			"count":2676,
			"type":"VEC3"
		},
		{
			"bufferView":22,
			"componentType":5126,
			"count":2676,
			"type":"VEC2"
		},
		{
			"bufferView":23,
			"componentType":5123,
			"count":5400,
			"type":"SCALAR"
		},
		{
			"bufferView":24,
			"componentType":5126,
			"count":638,
			"max":[
				12.335000038146973,
				-1.0914299488067627,
				0.5372999906539917
			],
			"min":[
				0.20497199892997742,
				-10.102100372314453,
				0.5372999906539917
			],
			"type":"VEC3"
		},
		{
			"bufferView":25,
			"componentType":5126,
			"count":638,
			"type":"VEC3"
		},
		{
			"bufferView":26,
			"componentType":5126,
			"count":638,
			"type":"VEC2"
		},
		{
			"bufferView":27,
			"componentType":5123,
			"count":1890,
			"type":"SCALAR"
		},
		{
			"bufferView":28,
			"componentType":5126,
			"count":439,
			"max":[
				6.6546101570129395,
				-4.528629779815674,
				0.5322999954223633
			],
			"min":[
				6.120329856872559,
				-6.0904998779296875,
				0.5297999978065491
			],
			"type":"VEC3"
		},
		{
			"bufferView":29,
			"componentType":5126,
			"count":439,
			"type":"VEC3"
		},
		{
			"bufferView":30,
			"componentType":5126,
			"count":439,
			"type":"VEC2"
		},
		{
			"bufferView":31,
			"componentType":5123,
			"count":882,
			"type":"SCALAR"
		},
		{
			"bufferView":32,
			"componentType":5126,
			"count":431,
			"max":[
				7.327899932861328,
				-4.54371976852417,
				0.5372999906539917
			],
			"min":[
				6.432179927825928,
				-5.936910152435303,
				0.5297999978065491
			],
			"type":"VEC3"
		},
		{
			"bufferView":33,
			"componentType":5126,
			"count":431,
			"type":"VEC3"
		},
		{
			"bufferView":34,
			"componentType":5126,
			"count":431,
			"type":"VEC2"
		},
		{
			"bufferView":35,
			"componentType":5123,
			"count":747,
			"type":"SCALAR"
		},
		{
			"bufferView":36,
			"componentType":5126,
			"count":16170,
			"max":[
				10.175200462341309,
				-3.785680055618286,
				0.5372999906539917
			],
			"min":[
				2.704969882965088,
				-7.602049827575684,
				0.517300009727478
			],
			"type":"VEC3"
		},
		{
			"bufferView":37,
			"componentType":5126,
			"count":16170,
			"type":"VEC3"
		},
		{
			"bufferView":38,
			"componentType":5126,
			"count":16170,
			"type":"VEC2"
		},
		{
			"bufferView":39,
			"componentType":5123,
			"count":30936,
			"type":"SCALAR"
		},
		{
			"bufferView":40,
			"componentType":5126,
			"count":1441,
			"max":[
				7.897039890289307,
				-5.68271017074585,
				0.5322999954223633
			],
			"min":[
				6.561800003051758,
				-6.37470006942749,
				0.5297999978065491
			],
			"type":"VEC3"
		},
		{
			"bufferView":41,
			"componentType":5126,
			"count":1441,
			"type":"VEC3"
		},
		{
			"bufferView":42,
			"componentType":5126,
			"count":1441,
			"type":"VEC2"
		},
		{
			"bufferView":43,
			"componentType":5123,
			"count":2916,
			"type":"SCALAR"
		},
		{
			"bufferView":44,
			"componentType":5126,
			"count":1161,
			"max":[
				8.087109565734863,
				-5.095920085906982,
				0.46230000257492065
			],
			"min":[
				8.067709922790527,
				-5.1496100425720215,
				0.39900198578834534
			],
			"type":"VEC3"
		},
		{
			"bufferView":45,
			"componentType":5126,
			"count":1161,
			"type":"VEC3"
		},
		{
			"bufferView":46,
			"componentType":5126,
			"count":1161,
			"type":"VEC2"
		},
		{
			"bufferView":47,
			"componentType":5123,
			"count":1521,
			"type":"SCALAR"
		}
	],
	"bufferViews":[
		{
			"buffer":0,
			"byteLength":31584,
			"byteOffset":0,
			"target":34962
		},
		{
			"buffer":0,
			"byteLength":31584,
			"byteOffset":31584,
			"target":34962
		},
		{
			"buffer":0,
			"byteLength":21056,
			"byteOffset":63168,
			"target":34962
		},
		{
			"buffer":0,
			"byteLength":10620,
			"byteOffset":84224,
			"target":34963
		},
		{
			"buffer":0,
			"byteLength":4320,
			"byteOffset":94844,
			"target":34962
		},
		{
			"buffer":0,
			"byteLength":4320,
			"byteOffset":99164,
			"target":34962
		},
		{
			"buffer":0,
			"byteLength":2880,
			"byteOffset":103484,
			"target":34962
		},
		{
			"buffer":0,
			"byteLength":1980,
			"byteOffset":106364,
			"target":34963
		},
		{
			"buffer":0,
			"byteLength":479844,
			"byteOffset":108344,
			"target":34962
		},
		{
			"buffer":0,
			"byteLength":479844,
			"byteOffset":588188,
			"target":34962
		},
		{
			"buffer":0,
			"byteLength":319896,
			"byteOffset":1068032,
			"target":34962
		},
		{
			"buffer":0,
			"byteLength":161322,
			"byteOffset":1387928,
			"target":34963
		},
		{
			"buffer":0,
			"byteLength":24516,
			"byteOffset":1549252,
			"target":34962
		},
		{
			"buffer":0,
			"byteLength":24516,
			"byteOffset":1573768,
			"target":34962
		},
		{
			"buffer":0,
			"byteLength":16344,
			"byteOffset":1598284,
			"target":34962
		},
		{
			"buffer":0,
			"byteLength":8184,
			"byteOffset":1614628,
			"target":34963
		},
		{
			"buffer":0,
			"byteLength":22044,
			"byteOffset":1622812,
			"target":34962
		},
		{
			"buffer":0,
			"byteLength":22044,
			"byteOffset":1644856,
			"target":34962
		},
		{
			"buffer":0,
			"byteLength":14696,
			"byteOffset":1666900,
			"target":34962
		},
		{
			"buffer":0,
			"byteLength":6816,
			"byteOffset":1681596,
			"target":34963
		},
		{
			"buffer":0,
			"byteLength":32112,
			"byteOffset":1688412,
			"target":34962
		},
		{
			"buffer":0,
			"byteLength":32112,
			"byteOffset":1720524,
			"target":34962
		},
		{
			"buffer":0,
			"byteLength":21408,
			"byteOffset":1752636,
			"target":34962
		},
		{
			"buffer":0,
			"byteLength":10800,
			"byteOffset":1774044,
			"target":34963
		},
		{
			"buffer":0,
			"byteLength":7656,
			"byteOffset":1784844,
			"target":34962
		},
		{
			"buffer":0,
			"byteLength":7656,
			"byteOffset":1792500,
			"target":34962
		},
		{
			"buffer":0,
			"byteLength":5104,
			"byteOffset":1800156,
			"target":34962
		},
		{
			"buffer":0,
			"byteLength":3780,
			"byteOffset":1805260,
			"target":34963
		},
		{
			"buffer":0,
			"byteLength":5268,
			"byteOffset":1809040,
			"target":34962
		},
		{
			"buffer":0,
			"byteLength":5268,
			"byteOffset":1814308,
			"target":34962
		},
		{
			"buffer":0,
			"byteLength":3512,
			"byteOffset":1819576,
			"target":34962
		},
		{
			"buffer":0,
			"byteLength":1764,
			"byteOffset":1823088,
			"target":34963
		},
		{
			"buffer":0,
			"byteLength":5172,
			"byteOffset":1824852,
			"target":34962
		},
		{
			"buffer":0,
			"byteLength":5172,
			"byteOffset":1830024,
			"target":34962
		},
		{
			"buffer":0,
			"byteLength":3448,
			"byteOffset":1835196,
			"target":34962
		},
		{
			"buffer":0,
			"byteLength":1494,
			"byteOffset":1838644,
			"target":34963
		},
		{
			"buffer":0,
			"byteLength":194040,
			"byteOffset":1840140,
			"target":34962
		},
		{
			"buffer":0,
			"byteLength":194040,
			"byteOffset":2034180,
			"target":34962
		},
		{
			"buffer":0,
			"byteLength":129360,
			"byteOffset":2228220,
			"target":34962
		},
		{
			"buffer":0,
			"byteLength":61872,
			"byteOffset":2357580,
			"target":34963
		},
		{
			"buffer":0,
			"byteLength":17292,
			"byteOffset":2419452,
			"target":34962
		},
		{
			"buffer":0,
			"byteLength":17292,
			"byteOffset":2436744,
			"target":34962
		},
		{
			"buffer":0,
			"byteLength":11528,
			"byteOffset":2454036,
			"target":34962
		},
		{
			"buffer":0,
			"byteLength":5832,
			"byteOffset":2465564,
			"target":34963
		},
		{
			"buffer":0,
			"byteLength":13932,
			"byteOffset":2471396,
			"target":34962
		},
		{
			"buffer":0,
			"byteLength":13932,
			"byteOffset":2485328,
			"target":34962
		},
		{
			"buffer":0,
			"byteLength":9288,
			"byteOffset":2499260,
			"target":34962
		},
		{
			"buffer":0,
			"byteLength":3042,
			"byteOffset":2508548,
			"target":34963
		}
	],
	"buffers":[
		{
			"byteLength":2511592,
			"uri":"esse2.bin"
		}
	]
}
